<?xml version="1.0" encoding="UTF-8" standalone="no"?>
<!DOCTYPE svg PUBLIC "-//W3C//DTD SVG 1.1//EN" "http://www.w3.org/Graphics/SVG/1.1/DTD/svg11.dtd">
<svg width="100%" height="100%" viewBox="0 0 4267 3017" version="1.1" xmlns="http://www.w3.org/2000/svg" xmlns:xlink="http://www.w3.org/1999/xlink" xml:space="preserve" xmlns:serif="http://www.serif.com/" style="fill-rule:evenodd;clip-rule:evenodd;stroke-linejoin:round;stroke-miterlimit:2;">
    <g transform="matrix(1,0,-0.365441,0.5,820.97092,1123.260247)">
        <path d="M1576.073,909.264L1576.073,1971.925C1576.073,2123.479 1514.552,2246.52 1438.776,2246.52L1164.181,2246.52C1088.404,2246.52 1026.883,2123.479 1026.883,1971.925L1026.883,909.264C1026.883,757.711 1088.404,634.669 1164.181,634.669L1438.776,634.669C1514.552,634.669 1576.073,757.711 1576.073,909.264Z" style="fill:rgb(235,235,235);"/>
    </g>
    <g transform="matrix(1,0,-0.214958,1,482.908218,0)">
        <path d="M1576.073,771.967L1576.073,2109.223C1576.073,2185 1514.552,2246.52 1438.776,2246.52L1164.181,2246.52C1088.404,2246.52 1026.883,2185 1026.883,2109.223L1026.883,771.967C1026.883,696.19 1088.404,634.669 1164.181,634.669L1438.776,634.669C1514.552,634.669 1576.073,696.19 1576.073,771.967Z" style="fill:rgb(0,159,223);"/>
    </g>
    <g transform="matrix(1,0,-0.365441,0.5,1471.479344,1123.260247)">
        <path d="M1576.073,909.264L1576.073,1971.925C1576.073,2123.479 1514.552,2246.52 1438.776,2246.52L1164.181,2246.52C1088.404,2246.52 1026.883,2123.479 1026.883,1971.925L1026.883,909.264C1026.883,757.711 1088.404,634.669 1164.181,634.669L1438.776,634.669C1514.552,634.669 1576.073,757.711 1576.073,909.264Z" style="fill:rgb(235,235,235);"/>
    </g>
    <g transform="matrix(1,0,-0.214958,1,1133.416642,0)">
        <path d="M1576.073,771.967L1576.073,2109.223C1576.073,2185 1514.552,2246.52 1438.776,2246.52L1164.181,2246.52C1088.404,2246.52 1026.883,2185 1026.883,2109.223L1026.883,771.967C1026.883,696.19 1088.404,634.669 1164.181,634.669L1438.776,634.669C1514.552,634.669 1576.073,696.19 1576.073,771.967Z" style="fill:rgb(0,159,223);"/>
    </g>
    <g transform="matrix(1,0,-0.365441,0.5,2146.761407,1123.260247)">
        <path d="M1576.073,909.264L1576.073,1971.925C1576.073,2123.479 1514.552,2246.52 1438.776,2246.52L1164.181,2246.52C1088.404,2246.52 1026.883,2123.479 1026.883,1971.925L1026.883,909.264C1026.883,757.711 1088.404,634.669 1164.181,634.669L1438.776,634.669C1514.552,634.669 1576.073,757.711 1576.073,909.264Z" style="fill:rgb(235,235,235);"/>
    </g>
    <g transform="matrix(1,0,-0.214958,1,1808.698705,0)">
        <path d="M1576.073,771.967L1576.073,2109.223C1576.073,2185 1514.552,2246.52 1438.776,2246.52L1164.181,2246.52C1088.404,2246.52 1026.883,2185 1026.883,2109.223L1026.883,771.967C1026.883,696.19 1088.404,634.669 1164.181,634.669L1438.776,634.669C1514.552,634.669 1576.073,696.19 1576.073,771.967Z" style="fill:rgb(0,159,223);"/>
    </g>
</svg>
